<mxfile host="65bd71144e">
    <diagram id="srDr_CU-v5JJxaSTNoaT" name="Page-1">
        <mxGraphModel dx="1067" dy="613" grid="1" gridSize="10" guides="1" tooltips="1" connect="1" arrows="1" fold="1" page="1" pageScale="1" pageWidth="827" pageHeight="1169" math="0" shadow="0">
            <root>
                <mxCell id="0"/>
                <mxCell id="1" parent="0"/>
                <mxCell id="2" value="dish" style="swimlane;fontStyle=0;childLayout=stackLayout;horizontal=1;startSize=26;fillColor=none;horizontalStack=0;resizeParent=1;resizeParentMax=0;resizeLast=0;collapsible=1;marginBottom=0;" vertex="1" parent="1">
                    <mxGeometry x="320" y="40" width="200" height="156" as="geometry"/>
                </mxCell>
                <mxCell id="3" value="dish_id   INT" style="text;strokeColor=none;fillColor=none;align=left;verticalAlign=top;spacingLeft=4;spacingRight=4;overflow=hidden;rotatable=0;points=[[0,0.5],[1,0.5]];portConstraint=eastwest;fontColor=#FFB366;fontStyle=1" vertex="1" parent="2">
                    <mxGeometry y="26" width="200" height="26" as="geometry"/>
                </mxCell>
                <mxCell id="4" value="image   VARCHAR(128)" style="text;strokeColor=none;fillColor=none;align=left;verticalAlign=top;spacingLeft=4;spacingRight=4;overflow=hidden;rotatable=0;points=[[0,0.5],[1,0.5]];portConstraint=eastwest;" vertex="1" parent="2">
                    <mxGeometry y="52" width="200" height="26" as="geometry"/>
                </mxCell>
                <mxCell id="5" value="name   VARCHAR(32)" style="text;strokeColor=none;fillColor=none;align=left;verticalAlign=top;spacingLeft=4;spacingRight=4;overflow=hidden;rotatable=0;points=[[0,0.5],[1,0.5]];portConstraint=eastwest;" vertex="1" parent="2">
                    <mxGeometry y="78" width="200" height="26" as="geometry"/>
                </mxCell>
                <mxCell id="6" value="price   FLOAT(3, 2)" style="text;strokeColor=none;fillColor=none;align=left;verticalAlign=top;spacingLeft=4;spacingRight=4;overflow=hidden;rotatable=0;points=[[0,0.5],[1,0.5]];portConstraint=eastwest;" vertex="1" parent="2">
                    <mxGeometry y="104" width="200" height="26" as="geometry"/>
                </mxCell>
                <mxCell id="7" value="description   VARCHAR(255)" style="text;strokeColor=none;fillColor=none;align=left;verticalAlign=top;spacingLeft=4;spacingRight=4;overflow=hidden;rotatable=0;points=[[0,0.5],[1,0.5]];portConstraint=eastwest;fontColor=default;fontStyle=0;" vertex="1" parent="2">
                    <mxGeometry y="130" width="200" height="26" as="geometry"/>
                </mxCell>
                <mxCell id="qyA27ub7ats5O-v8X3av-9" value="&lt;h1&gt;&lt;span style=&quot;font-size: 12px ; font-weight: normal&quot;&gt;CREATE DATABASE dishes DEFAULT CHARACTER SET utf8;&lt;/span&gt;&lt;br&gt;&lt;/h1&gt;&lt;div&gt;&lt;div&gt;CREATE TABLE dish(&lt;/div&gt;&lt;div&gt;&amp;nbsp; &amp;nbsp; dish_id INT PRIMARY KEY NOT NULL,&lt;/div&gt;&lt;div&gt;&amp;nbsp; &amp;nbsp; image VARCHAR(128),&lt;/div&gt;&lt;div&gt;&amp;nbsp; &amp;nbsp; name VARCHAR(32),&lt;/div&gt;&lt;div&gt;&amp;nbsp; &amp;nbsp; price FLOAT(3, 2),&lt;/div&gt;&lt;div&gt;&amp;nbsp; &amp;nbsp; description VARCHAR(255)&lt;/div&gt;&lt;div&gt;);&lt;/div&gt;&lt;div&gt;&lt;br&gt;&lt;/div&gt;&lt;div&gt;ALTER TABLE `dish`CHANGE `dish_id` `dish_id`INT(11) NOT NULL AUTO_INCREMENT;&amp;nbsp; &amp;nbsp;&lt;/div&gt;&lt;/div&gt;" style="text;html=1;strokeColor=none;fillColor=none;spacing=5;spacingTop=-20;whiteSpace=wrap;overflow=hidden;rounded=0;fontColor=default;" vertex="1" parent="1">
                    <mxGeometry x="160" y="230" width="620" height="180" as="geometry"/>
                </mxCell>
            </root>
        </mxGraphModel>
    </diagram>
</mxfile>